<svg width="36" height="36" viewBox="0 0 36 36" fill="none" xmlns="http://www.w3.org/2000/svg">
<path d="M20.925 19.5H13.5V12.075L21.915 3.66C20.6544 3.22945 19.3321 3.00654 18 3C11.7 3 6 7.83 6 15.3C6 20.28 10.005 26.175 18 33C25.995 26.175 30 20.28 30 15.3C30 13.785 29.76 12.39 29.325 11.1L20.925 19.5Z" fill="#5FA8D3"/>
<path d="M16.5 16.5H19.68L28.92 7.26L25.74 4.08L16.5 13.32V16.5ZM31.065 3L30 1.935C29.7 1.65 29.325 1.5 28.935 1.5C28.74 1.5 28.215 1.605 27.87 1.935L26.79 3.015L29.97 6.195L31.05 5.115C31.65 4.53 31.65 3.585 31.065 3Z" fill="#484538"/>
</svg>
